Genre:Comedy | Drama | Mystery 
Language:English
IMDb:http://www.imdb.com/title/tt1194263/
Source:IFLIX Thx.

General
Complete name :Get Low 2009 PPVRip XviD Feel-Free
Format : AVI
Format/Info : Audio Video Interleave
File size : 1 000 MiB
Duration : 1h 42mn
Overall bit rate : 1 357 Kbps
Video #0
Muxing mode : Packed bitstream
Codec ID : XVID
Codec ID/Hint : XviD
Duration : 1h 42mn
Bit rate : 1 217 Kbps
Width : 720 pixels
Height : 384 pixels
Display aspect ratio : 1.875
Frame rate : 29.970 fps
Resolution : 24 bits
Colorimetry : 4:2:0
Scan type : Progressive
Bits/(Pixel*Frame) : 0.147
Stream size : 897 MiB (90%)
Writing library : XviD 1.2.1 (UTC 2008-12-04)
Audio #1
ID : 1
Format : MPEG Audio
Format version : Version 1
Format profile : Layer 3
Codec ID : 55
Codec ID/Hint : MP3
Duration : 1h 42mn
Bit rate mode : Constant
Bit rate : 128 Kbps
Channel(s) : 2 channels
Sampling rate : 48.0 KHz
Resolution : 16 bits
Stream size : 94.3 MiB (9%)
Alignment : Split accross interleaves
Interleave, duration : 33 ms (1.00 video frame)
Interleave, preload duration : 500 ms

Plot:
A movie spun out of equal parts folk tale, fable and real-life legend about the mysterious, 1930s Tennessee hermit who famously threw his own rollicking funeral party... while he was still alive. 

TRAILER:http://www.imdb.com/video/imdb/vi479725081/




================================== 
http://thepiratebay.org/user/hiest
==================================